<svg width="607" height="607" viewBox="0 0 607 607" fill="none" xmlns="http://www.w3.org/2000/svg">
<path d="M303.5 607C136.146 607 0 470.854 0 303.5C0 136.146 136.146 0 303.5 0C470.854 0 607 136.146 607 303.5C606.962 470.854 470.816 607 303.5 607ZM303.5 3.8346C138.234 3.8346 3.7966 138.272 3.7966 303.538C3.7966 468.804 138.234 603.241 303.5 603.241C468.766 603.241 603.203 468.804 603.203 303.538C603.203 138.272 468.728 3.8346 303.5 3.8346Z" fill="#FFC263" fill-opacity="0.15"/>
<path d="M303.5 577.69C152.32 577.69 29.3096 454.681 29.3096 303.5C29.3096 152.32 152.32 29.3098 303.5 29.3098C454.681 29.3098 577.69 152.32 577.69 303.5C577.69 454.719 454.681 577.69 303.5 577.69ZM303.5 36.941C156.496 36.941 36.9028 156.534 36.9028 303.538C36.9028 450.542 156.496 570.135 303.5 570.135C450.504 570.135 570.097 450.542 570.097 303.538C570.097 156.534 450.504 36.941 303.5 36.941Z" fill="#FFC263" fill-opacity="0.15"/>
<path d="M303.5 501.568C194.31 501.568 105.469 412.728 105.469 303.538C105.469 194.348 194.31 105.507 303.5 105.507C412.69 105.507 501.53 194.348 501.53 303.538C501.53 412.728 412.69 501.568 303.5 501.568ZM303.5 113.063C198.486 113.063 113.062 198.486 113.062 303.5C113.062 408.514 198.486 493.937 303.5 493.937C408.514 493.937 493.937 408.514 493.937 303.5C493.937 198.524 408.514 113.063 303.5 113.063Z" fill="#FFC263" fill-opacity="0.15"/>
<path d="M303.5 467.513C213.065 467.513 139.487 393.935 139.487 303.5C139.487 213.065 213.065 139.487 303.5 139.487C393.935 139.487 467.513 213.065 467.513 303.5C467.513 393.973 393.935 467.513 303.5 467.513ZM303.5 143.284C215.153 143.284 143.284 215.153 143.284 303.5C143.284 391.847 215.153 463.716 303.5 463.716C391.847 463.716 463.716 391.847 463.716 303.5C463.716 215.191 391.847 143.284 303.5 143.284Z" fill="#FFC263" fill-opacity="0.15"/>
<path d="M303.5 405.553C247.234 405.553 201.485 359.804 201.485 303.538C201.485 247.272 247.234 201.523 303.5 201.523C359.766 201.523 405.515 247.272 405.515 303.538C405.515 359.766 359.728 405.553 303.5 405.553ZM303.5 209.079C251.449 209.079 209.079 251.449 209.079 303.5C209.079 355.551 251.449 397.921 303.5 397.921C355.551 397.921 397.921 355.551 397.921 303.5C397.921 251.449 355.551 209.079 303.5 209.079Z" fill="#FFC263" fill-opacity="0.15"/>
<path d="M303.5 354.223C275.557 354.223 252.815 331.481 252.815 303.538C252.815 275.595 275.557 252.816 303.5 252.816C331.443 252.816 354.223 275.557 354.223 303.538C354.185 331.481 331.443 354.223 303.5 354.223ZM303.5 256.612C277.645 256.612 256.612 277.645 256.612 303.538C256.612 329.431 277.645 350.426 303.5 350.426C329.355 350.426 350.426 329.393 350.426 303.538C350.426 277.683 329.355 256.612 303.5 256.612Z" fill="#FFC263" fill-opacity="0.15"/>
</svg>
