<svg width="173" height="59" viewBox="0 0 173 59" fill="none" xmlns="http://www.w3.org/2000/svg">
<g clip-path="url(#clip0_58_46)">
<path d="M28.1042 9.8335C32.8271 9.8335 36.7084 13.7147 36.7084 18.4377C36.7084 19.7603 36.3765 21.0013 35.8345 22.1252H36.7084H37.9375C42.6604 22.1252 46.5417 26.0064 46.5417 30.7293C46.5417 35.3372 42.8397 39.1171 38.2736 39.2999C38.8262 40.4326 39.1667 41.6846 39.1667 43.021C39.1667 47.7439 35.2854 51.6252 30.5625 51.6252H29.3334H-0.166645V46.7085H29.3334H30.5625C32.6295 46.7085 34.25 45.088 34.25 43.021C34.25 40.954 32.6295 39.3335 30.5625 39.3335H24.4167V44.2502L17.0417 40.5627L9.66669 44.2502V39.3335H-0.166645V34.4168H9.66669V27.0418H4.75002H-0.166645V22.1252H4.75002H9.66669H24.4167H28.1042C30.1712 22.1252 31.7917 20.5047 31.7917 18.4377C31.7917 16.3707 30.1712 14.7502 28.1042 14.7502H26.875H-0.166645V9.8335H26.875H28.1042ZM37.9375 27.0418H36.7084H24.4167V34.4168H37.9375C40.0045 34.4168 41.625 32.7963 41.625 30.7293C41.625 28.6623 40.0045 27.0418 37.9375 27.0418Z" fill="#333333"/>
</g>
<path d="M55.963 38.66C54.819 38.66 53.873 38.484 53.125 38.132C52.399 37.78 51.827 37.318 51.409 36.746C50.991 36.152 50.694 35.514 50.518 34.832C50.364 34.128 50.287 33.446 50.287 32.786C50.287 31.29 50.463 29.816 50.815 28.364C51.189 26.912 51.75 25.592 52.498 24.404C53.268 23.216 54.236 22.27 55.402 21.566C56.59 20.862 58.009 20.51 59.659 20.51C60.825 20.51 61.771 20.686 62.497 21.038C63.223 21.39 63.795 21.863 64.213 22.457C64.653 23.029 64.95 23.667 65.104 24.371C65.258 25.053 65.335 25.713 65.335 26.351C65.335 27.847 65.148 29.332 64.774 30.806C64.422 32.258 63.861 33.578 63.091 34.766C62.343 35.954 61.375 36.9 60.187 37.604C59.021 38.308 57.613 38.66 55.963 38.66ZM56.59 36.68C57.25 36.68 57.844 36.46 58.372 36.02C58.9 35.58 59.362 34.986 59.758 34.238C60.154 33.468 60.473 32.621 60.715 31.697C60.979 30.751 61.177 29.783 61.309 28.793C61.441 27.803 61.507 26.846 61.507 25.922C61.507 24.91 61.331 24.085 60.979 23.447C60.627 22.809 59.989 22.49 59.065 22.49C58.405 22.49 57.8 22.71 57.25 23.15C56.7 23.59 56.227 24.184 55.831 24.932C55.457 25.68 55.138 26.527 54.874 27.473C54.61 28.397 54.412 29.365 54.28 30.377C54.17 31.367 54.115 32.324 54.115 33.248C54.115 34.238 54.291 35.063 54.643 35.723C55.017 36.361 55.666 36.68 56.59 36.68ZM73.3976 38.66C72.2536 38.66 71.3076 38.484 70.5596 38.132C69.8336 37.78 69.2616 37.318 68.8436 36.746C68.4256 36.152 68.1286 35.514 67.9526 34.832C67.7986 34.128 67.7216 33.446 67.7216 32.786C67.7216 31.29 67.8976 29.816 68.2496 28.364C68.6236 26.912 69.1846 25.592 69.9326 24.404C70.7026 23.216 71.6706 22.27 72.8366 21.566C74.0246 20.862 75.4436 20.51 77.0936 20.51C78.2596 20.51 79.2056 20.686 79.9316 21.038C80.6576 21.39 81.2296 21.863 81.6476 22.457C82.0876 23.029 82.3846 23.667 82.5386 24.371C82.6926 25.053 82.7696 25.713 82.7696 26.351C82.7696 27.847 82.5826 29.332 82.2086 30.806C81.8566 32.258 81.2956 33.578 80.5256 34.766C79.7776 35.954 78.8096 36.9 77.6216 37.604C76.4556 38.308 75.0476 38.66 73.3976 38.66ZM74.0246 36.68C74.6846 36.68 75.2786 36.46 75.8066 36.02C76.3346 35.58 76.7966 34.986 77.1926 34.238C77.5886 33.468 77.9076 32.621 78.1496 31.697C78.4136 30.751 78.6116 29.783 78.7436 28.793C78.8756 27.803 78.9416 26.846 78.9416 25.922C78.9416 24.91 78.7656 24.085 78.4136 23.447C78.0616 22.809 77.4236 22.49 76.4996 22.49C75.8396 22.49 75.2346 22.71 74.6846 23.15C74.1346 23.59 73.6616 24.184 73.2656 24.932C72.8916 25.68 72.5726 26.527 72.3086 27.473C72.0446 28.397 71.8466 29.365 71.7146 30.377C71.6046 31.367 71.5496 32.324 71.5496 33.248C71.5496 34.238 71.7256 35.063 72.0776 35.723C72.4516 36.361 73.1006 36.68 74.0246 36.68ZM84.2298 38.396L87.1338 23.645L90.2358 23.876C90.8078 22.71 91.5998 21.863 92.6118 21.335C93.6238 20.785 94.6688 20.51 95.7468 20.51C97.0888 20.51 98.0678 20.862 98.6838 21.566C99.3218 22.27 99.6408 23.194 99.6408 24.338C99.6408 25.548 99.3438 26.571 98.7498 27.407C98.1558 28.243 97.3968 28.925 96.4728 29.453C95.5708 29.959 94.6468 30.377 93.7008 30.707L90.4668 30.047C91.3468 29.827 92.2048 29.508 93.0408 29.09C93.8768 28.672 94.5698 28.133 95.1198 27.473C95.6698 26.813 95.9448 26.032 95.9448 25.13C95.9448 23.744 95.2738 23.051 93.9318 23.051C93.0738 23.051 92.3698 23.337 91.8198 23.909C91.2698 24.459 90.8408 25.185 90.5328 26.087C90.2248 26.967 89.9718 27.88 89.7738 28.826L87.9918 38L84.2298 38.396ZM95.8458 38.66C95.3398 38.66 94.8778 38.55 94.4598 38.33C94.0418 38.11 93.6568 37.769 93.3048 37.307C92.9528 36.845 92.6228 36.273 92.3148 35.591C92.0068 34.909 91.6988 34.106 91.3908 33.182C91.1048 32.258 90.7968 31.213 90.4668 30.047H93.9978L95.6808 34.469C95.9228 35.019 96.2418 35.536 96.6378 36.02C97.0338 36.504 97.5398 36.779 98.1558 36.845C98.0898 37.373 97.8588 37.802 97.4628 38.132C97.0668 38.484 96.5278 38.66 95.8458 38.66ZM90.2358 24.272L87.0678 23.942C87.2438 23.018 87.4198 22.006 87.5958 20.906C87.7938 19.784 87.9588 18.684 88.0908 17.606C88.2448 16.528 88.3218 15.604 88.3218 14.834C88.3218 14.57 88.3108 14.339 88.2888 14.141C88.2888 13.943 88.2778 13.756 88.2558 13.58C88.4758 13.426 88.7288 13.316 89.0148 13.25C89.3228 13.162 89.6418 13.118 89.9718 13.118C90.5438 13.118 91.0718 13.294 91.5558 13.646C92.0618 13.976 92.3038 14.581 92.2818 15.461C92.2818 15.725 92.2268 16.143 92.1168 16.715C92.0288 17.265 91.8968 17.892 91.7208 18.596C91.5668 19.3 91.4018 20.026 91.2258 20.774C91.0498 21.5 90.8738 22.182 90.6978 22.82C90.5218 23.436 90.3678 23.92 90.2358 24.272ZM106.456 38.726C105.092 38.726 103.926 38.517 102.958 38.099C102.012 37.703 101.286 37.142 100.78 36.416C100.274 35.69 100.021 34.843 100.021 33.875C100.021 33.061 100.175 32.357 100.483 31.763C100.813 31.169 101.253 30.707 101.803 30.377C102.353 30.025 102.969 29.849 103.651 29.849C104.135 29.849 104.553 29.937 104.905 30.113C105.279 30.289 105.554 30.531 105.73 30.839C105.928 31.125 106.027 31.477 106.027 31.895C106.027 32.005 106.016 32.126 105.994 32.258C105.972 32.39 105.95 32.511 105.928 32.621C105.84 32.577 105.73 32.555 105.598 32.555C105.488 32.533 105.378 32.522 105.268 32.522C104.828 32.522 104.454 32.676 104.146 32.984C103.838 33.27 103.684 33.71 103.684 34.304C103.684 35.074 103.992 35.657 104.608 36.053C105.246 36.427 106.027 36.614 106.951 36.614C107.655 36.614 108.315 36.471 108.931 36.185C109.547 35.899 110.042 35.481 110.416 34.931C110.812 34.381 111.01 33.699 111.01 32.885C111.01 32.203 110.834 31.587 110.482 31.037C110.152 30.487 109.723 29.97 109.195 29.486C108.689 29.002 108.139 28.529 107.545 28.067C106.885 27.539 106.247 27 105.631 26.45C105.015 25.878 104.498 25.229 104.08 24.503C103.684 23.777 103.486 22.93 103.486 21.962C103.486 20.95 103.706 20.048 104.146 19.256C104.586 18.442 105.169 17.771 105.895 17.243C106.643 16.693 107.49 16.275 108.436 15.989C109.404 15.703 110.405 15.56 111.439 15.56C112.539 15.56 113.496 15.714 114.31 16.022C115.124 16.308 115.751 16.726 116.191 17.276C116.653 17.826 116.884 18.475 116.884 19.223C116.884 19.905 116.752 20.51 116.488 21.038C116.224 21.566 115.861 21.984 115.399 22.292C114.959 22.578 114.464 22.721 113.914 22.721C113.496 22.721 113.133 22.655 112.825 22.523C112.517 22.391 112.297 22.215 112.165 21.995C112.429 21.841 112.671 21.566 112.891 21.17C113.111 20.774 113.221 20.345 113.221 19.883C113.221 19.201 113.012 18.662 112.594 18.266C112.176 17.848 111.494 17.639 110.548 17.639C109.58 17.639 108.766 17.925 108.106 18.497C107.468 19.069 107.149 19.839 107.149 20.807C107.149 21.489 107.325 22.116 107.677 22.688C108.029 23.238 108.48 23.755 109.03 24.239C109.602 24.701 110.185 25.163 110.779 25.625C111.439 26.109 112.066 26.637 112.66 27.209C113.276 27.781 113.771 28.441 114.145 29.189C114.541 29.915 114.739 30.773 114.739 31.763C114.739 32.863 114.497 33.853 114.013 34.733C113.551 35.591 112.913 36.317 112.099 36.911C111.307 37.505 110.416 37.956 109.426 38.264C108.436 38.572 107.446 38.726 106.456 38.726ZM120.839 38.693C120.223 38.693 119.684 38.495 119.222 38.099C118.76 37.703 118.529 37.131 118.529 36.383C118.529 35.943 118.595 35.327 118.727 34.535C118.859 33.721 119.013 32.863 119.189 31.961C119.365 31.059 119.541 30.201 119.717 29.387C119.915 28.551 120.058 27.88 120.146 27.374L121.103 22.655H118.76L118.892 21.665C119.948 21.269 120.993 20.741 122.027 20.081C123.061 19.421 123.974 18.695 124.766 17.903H125.789L125.129 21.17H127.703L127.406 22.655H124.799L122.522 33.875C122.456 34.227 122.401 34.546 122.357 34.832C122.313 35.096 122.28 35.349 122.258 35.591C122.236 36.185 122.346 36.603 122.588 36.845C122.83 37.065 123.27 37.109 123.908 36.977C123.71 37.395 123.457 37.725 123.149 37.967C122.863 38.209 122.522 38.385 122.126 38.495C121.73 38.627 121.301 38.693 120.839 38.693ZM133.532 38.66C132.388 38.66 131.442 38.484 130.694 38.132C129.968 37.78 129.396 37.318 128.978 36.746C128.56 36.152 128.263 35.514 128.087 34.832C127.933 34.128 127.856 33.446 127.856 32.786C127.856 31.29 128.032 29.816 128.384 28.364C128.758 26.912 129.319 25.592 130.067 24.404C130.837 23.216 131.805 22.27 132.971 21.566C134.159 20.862 135.578 20.51 137.228 20.51C138.394 20.51 139.34 20.686 140.066 21.038C140.792 21.39 141.364 21.863 141.782 22.457C142.222 23.029 142.519 23.667 142.673 24.371C142.827 25.053 142.904 25.713 142.904 26.351C142.904 27.847 142.717 29.332 142.343 30.806C141.991 32.258 141.43 33.578 140.66 34.766C139.912 35.954 138.944 36.9 137.756 37.604C136.59 38.308 135.182 38.66 133.532 38.66ZM134.159 36.68C134.819 36.68 135.413 36.46 135.941 36.02C136.469 35.58 136.931 34.986 137.327 34.238C137.723 33.468 138.042 32.621 138.284 31.697C138.548 30.751 138.746 29.783 138.878 28.793C139.01 27.803 139.076 26.846 139.076 25.922C139.076 24.91 138.9 24.085 138.548 23.447C138.196 22.809 137.558 22.49 136.634 22.49C135.974 22.49 135.369 22.71 134.819 23.15C134.269 23.59 133.796 24.184 133.4 24.932C133.026 25.68 132.707 26.527 132.443 27.473C132.179 28.397 131.981 29.365 131.849 30.377C131.739 31.367 131.684 32.324 131.684 33.248C131.684 34.238 131.86 35.063 132.212 35.723C132.586 36.361 133.235 36.68 134.159 36.68ZM144.961 38.396L148.261 21.17L151.396 20.774L151 23.744C151.418 22.798 152.045 22.028 152.881 21.434C153.717 20.818 154.652 20.51 155.686 20.51C156.764 20.51 157.545 20.829 158.029 21.467C158.535 22.105 158.788 22.886 158.788 23.81C158.788 24.91 158.491 25.856 157.897 26.648C157.303 27.44 156.522 27.836 155.554 27.836C155.29 27.836 155.015 27.792 154.729 27.704C154.465 27.616 154.256 27.462 154.102 27.242C154.388 26.868 154.619 26.417 154.795 25.889C154.971 25.339 155.059 24.844 155.059 24.404C155.059 23.986 154.96 23.656 154.762 23.414C154.586 23.172 154.289 23.051 153.871 23.051C153.343 23.051 152.881 23.249 152.485 23.645C152.089 24.019 151.759 24.503 151.495 25.097C151.231 25.691 151.011 26.329 150.835 27.011C150.681 27.671 150.549 28.276 150.439 28.826L148.822 38L144.961 38.396ZM164.827 38.66C163.573 38.66 162.484 38.429 161.56 37.967C160.658 37.483 159.965 36.757 159.481 35.789C158.997 34.821 158.755 33.6 158.755 32.126C158.755 30.74 158.942 29.365 159.316 28.001C159.712 26.615 160.295 25.361 161.065 24.239C161.835 23.117 162.814 22.215 164.002 21.533C165.212 20.851 166.631 20.51 168.259 20.51C169.117 20.51 169.887 20.631 170.569 20.873C171.251 21.115 171.79 21.511 172.186 22.061C172.582 22.611 172.78 23.359 172.78 24.305C172.78 25.581 172.395 26.659 171.625 27.539C170.877 28.397 169.876 29.057 168.622 29.519C167.368 29.959 165.982 30.179 164.464 30.179C164.178 30.179 163.859 30.179 163.507 30.179C163.177 30.157 162.902 30.135 162.682 30.113C162.66 30.465 162.638 30.817 162.616 31.169C162.594 31.499 162.583 31.807 162.583 32.093C162.583 33.281 162.803 34.216 163.243 34.898C163.683 35.558 164.486 35.888 165.652 35.888C166.598 35.888 167.445 35.668 168.193 35.228C168.941 34.766 169.524 34.117 169.942 33.281C170.25 33.369 170.459 33.545 170.569 33.809C170.679 34.073 170.734 34.348 170.734 34.634C170.734 35.294 170.503 35.932 170.041 36.548C169.579 37.164 168.908 37.67 168.028 38.066C167.148 38.462 166.081 38.66 164.827 38.66ZM162.913 28.496C163.661 28.496 164.398 28.419 165.124 28.265C165.872 28.111 166.554 27.869 167.17 27.539C167.786 27.187 168.27 26.747 168.622 26.219C168.996 25.669 169.183 25.031 169.183 24.305C169.183 23.667 169.029 23.194 168.721 22.886C168.435 22.556 168.017 22.391 167.467 22.391C166.851 22.391 166.279 22.589 165.751 22.985C165.245 23.359 164.805 23.854 164.431 24.47C164.057 25.086 163.738 25.746 163.474 26.45C163.232 27.154 163.045 27.836 162.913 28.496Z" fill="white"/>
<defs>
<clipPath id="clip0_58_46">
<rect width="49" height="59" fill="white" transform="matrix(-1 0 0 1 49 0)"/>
</clipPath>
</defs>
</svg>
