<svg width="32" height="32" viewBox="0 0 32 32" fill="none" xmlns="http://www.w3.org/2000/svg">
<path d="M22.0001 4C18.1401 4 16.0001 6.78667 16.0001 6.78667C16.0001 6.78667 13.8601 4 10.0001 4C5.94941 4 2.66675 7.28267 2.66675 11.3333C2.66675 16.8947 9.21608 22.284 11.0414 23.9867C13.1441 25.9467 16.0001 28.4667 16.0001 28.4667C16.0001 28.4667 18.8561 25.9467 20.9587 23.9867C22.7841 22.284 29.3334 16.8947 29.3334 11.3333C29.3334 7.28267 26.0507 4 22.0001 4ZM19.7481 21.48C19.5121 21.6933 19.3067 21.8787 19.1401 22.0347C18.1387 22.968 16.9547 24.0387 16.0001 24.8947C15.0454 24.0387 13.8601 22.9667 12.8601 22.0347C12.6921 21.8787 12.4867 21.692 12.2521 21.48C10.3587 19.7693 5.33341 15.2253 5.33341 11.3333C5.33341 8.76 7.42675 6.66667 10.0001 6.66667C12.4361 6.66667 13.8481 8.36667 13.8854 8.41067L16.0001 10.6667L18.1147 8.41067C18.1281 8.39333 19.5641 6.66667 22.0001 6.66667C24.5734 6.66667 26.6667 8.76 26.6667 11.3333C26.6667 15.2253 21.6414 19.7693 19.7481 21.48Z" fill="#333333"/>
</svg>
